<svg xmlns="http://www.w3.org/2000/svg" xmlns:xlink="http://www.w3.org/1999/xlink" width="500" zoomAndPan="magnify" viewBox="0 0 375 374.999991" height="500" preserveAspectRatio="xMidYMid meet" version="1.2"><defs><linearGradient x1="0" gradientTransform="matrix(0.75,0,0,0.75,0.0000045,0)" y1="0" x2="499.999979" gradientUnits="userSpaceOnUse" y2="499.999979" id="8b49843d53"><stop style="stop-color:#00acb4;stop-opacity:1;" offset="0"/><stop style="stop-color:#00acb4;stop-opacity:1;" offset="0.0078125"/><stop style="stop-color:#01adb5;stop-opacity:1;" offset="0.015625"/><stop style="stop-color:#02aeb5;stop-opacity:1;" offset="0.0234375"/><stop style="stop-color:#03aeb6;stop-opacity:1;" offset="0.03125"/><stop style="stop-color:#04afb7;stop-opacity:1;" offset="0.0390625"/><stop style="stop-color:#05afb7;stop-opacity:1;" offset="0.046875"/><stop style="stop-color:#06b0b8;stop-opacity:1;" offset="0.0546875"/><stop style="stop-color:#07b1b8;stop-opacity:1;" offset="0.0625"/><stop style="stop-color:#07b1b9;stop-opacity:1;" offset="0.0703125"/><stop style="stop-color:#08b2ba;stop-opacity:1;" offset="0.078125"/><stop style="stop-color:#09b2ba;stop-opacity:1;" offset="0.0859375"/><stop style="stop-color:#0ab3bb;stop-opacity:1;" offset="0.09375"/><stop style="stop-color:#0bb4bb;stop-opacity:1;" offset="0.101562"/><stop style="stop-color:#0cb4bc;stop-opacity:1;" offset="0.109375"/><stop style="stop-color:#0db5bd;stop-opacity:1;" offset="0.117188"/><stop style="stop-color:#0eb5bd;stop-opacity:1;" offset="0.125"/><stop style="stop-color:#0fb6be;stop-opacity:1;" offset="0.132812"/><stop style="stop-color:#0fb7be;stop-opacity:1;" offset="0.140625"/><stop style="stop-color:#10b7bf;stop-opacity:1;" offset="0.148437"/><stop style="stop-color:#11b8bf;stop-opacity:1;" offset="0.15625"/><stop style="stop-color:#12b8c0;stop-opacity:1;" offset="0.164062"/><stop style="stop-color:#13b9c1;stop-opacity:1;" offset="0.171875"/><stop style="stop-color:#14bac1;stop-opacity:1;" offset="0.179687"/><stop style="stop-color:#15bac2;stop-opacity:1;" offset="0.1875"/><stop style="stop-color:#16bbc2;stop-opacity:1;" offset="0.195312"/><stop style="stop-color:#17bbc3;stop-opacity:1;" offset="0.203125"/><stop style="stop-color:#17bcc4;stop-opacity:1;" offset="0.210938"/><stop style="stop-color:#18bdc4;stop-opacity:1;" offset="0.21875"/><stop style="stop-color:#19bdc5;stop-opacity:1;" offset="0.226562"/><stop style="stop-color:#1abec5;stop-opacity:1;" offset="0.234375"/><stop style="stop-color:#1bbec6;stop-opacity:1;" offset="0.242188"/><stop style="stop-color:#1cbfc6;stop-opacity:1;" offset="0.25"/><stop style="stop-color:#1dc0c7;stop-opacity:1;" offset="0.257812"/><stop style="stop-color:#1ec0c8;stop-opacity:1;" offset="0.265625"/><stop style="stop-color:#1ec1c8;stop-opacity:1;" offset="0.273437"/><stop style="stop-color:#1fc1c9;stop-opacity:1;" offset="0.28125"/><stop style="stop-color:#20c2c9;stop-opacity:1;" offset="0.289062"/><stop style="stop-color:#21c3ca;stop-opacity:1;" offset="0.296875"/><stop style="stop-color:#22c3cb;stop-opacity:1;" offset="0.304687"/><stop style="stop-color:#23c4cb;stop-opacity:1;" offset="0.3125"/><stop style="stop-color:#24c4cc;stop-opacity:1;" offset="0.320312"/><stop style="stop-color:#25c5cc;stop-opacity:1;" offset="0.328125"/><stop style="stop-color:#26c6cd;stop-opacity:1;" offset="0.335937"/><stop style="stop-color:#26c6ce;stop-opacity:1;" offset="0.34375"/><stop style="stop-color:#27c7ce;stop-opacity:1;" offset="0.351562"/><stop style="stop-color:#28c7cf;stop-opacity:1;" offset="0.359375"/><stop style="stop-color:#29c8cf;stop-opacity:1;" offset="0.367187"/><stop style="stop-color:#2ac9d0;stop-opacity:1;" offset="0.375"/><stop style="stop-color:#2bc9d0;stop-opacity:1;" offset="0.382812"/><stop style="stop-color:#2ccad1;stop-opacity:1;" offset="0.390625"/><stop style="stop-color:#2dcad2;stop-opacity:1;" offset="0.398438"/><stop style="stop-color:#2dcbd2;stop-opacity:1;" offset="0.40625"/><stop style="stop-color:#2eccd3;stop-opacity:1;" offset="0.414062"/><stop style="stop-color:#2fccd3;stop-opacity:1;" offset="0.421875"/><stop style="stop-color:#30cdd4;stop-opacity:1;" offset="0.429688"/><stop style="stop-color:#31cdd5;stop-opacity:1;" offset="0.4375"/><stop style="stop-color:#32ced5;stop-opacity:1;" offset="0.445312"/><stop style="stop-color:#33cfd6;stop-opacity:1;" offset="0.453125"/><stop style="stop-color:#34cfd6;stop-opacity:1;" offset="0.460938"/><stop style="stop-color:#35d0d7;stop-opacity:1;" offset="0.46875"/><stop style="stop-color:#35d0d7;stop-opacity:1;" offset="0.476562"/><stop style="stop-color:#36d1d8;stop-opacity:1;" offset="0.484375"/><stop style="stop-color:#37d2d9;stop-opacity:1;" offset="0.492188"/><stop style="stop-color:#38d2d9;stop-opacity:1;" offset="0.5"/><stop style="stop-color:#39d3da;stop-opacity:1;" offset="0.507812"/><stop style="stop-color:#3ad3da;stop-opacity:1;" offset="0.515625"/><stop style="stop-color:#3bd4db;stop-opacity:1;" offset="0.523437"/><stop style="stop-color:#3cd5dc;stop-opacity:1;" offset="0.53125"/><stop style="stop-color:#3cd5dc;stop-opacity:1;" offset="0.539062"/><stop style="stop-color:#3dd6dd;stop-opacity:1;" offset="0.546875"/><stop style="stop-color:#3ed6dd;stop-opacity:1;" offset="0.554687"/><stop style="stop-color:#3fd7de;stop-opacity:1;" offset="0.5625"/><stop style="stop-color:#40d8de;stop-opacity:1;" offset="0.570312"/><stop style="stop-color:#41d8df;stop-opacity:1;" offset="0.578125"/><stop style="stop-color:#42d9e0;stop-opacity:1;" offset="0.585937"/><stop style="stop-color:#43d9e0;stop-opacity:1;" offset="0.59375"/><stop style="stop-color:#44dae1;stop-opacity:1;" offset="0.601562"/><stop style="stop-color:#44dbe1;stop-opacity:1;" offset="0.609375"/><stop style="stop-color:#45dbe2;stop-opacity:1;" offset="0.617187"/><stop style="stop-color:#46dce3;stop-opacity:1;" offset="0.625"/><stop style="stop-color:#47dce3;stop-opacity:1;" offset="0.632812"/><stop style="stop-color:#48dde4;stop-opacity:1;" offset="0.640625"/><stop style="stop-color:#49dee4;stop-opacity:1;" offset="0.648437"/><stop style="stop-color:#4adee5;stop-opacity:1;" offset="0.65625"/><stop style="stop-color:#4bdfe6;stop-opacity:1;" offset="0.664062"/><stop style="stop-color:#4bdfe6;stop-opacity:1;" offset="0.671875"/><stop style="stop-color:#4ce0e7;stop-opacity:1;" offset="0.679687"/><stop style="stop-color:#4de1e7;stop-opacity:1;" offset="0.6875"/><stop style="stop-color:#4ee1e8;stop-opacity:1;" offset="0.695312"/><stop style="stop-color:#4fe2e8;stop-opacity:1;" offset="0.703125"/><stop style="stop-color:#50e2e9;stop-opacity:1;" offset="0.710937"/><stop style="stop-color:#51e3ea;stop-opacity:1;" offset="0.71875"/><stop style="stop-color:#52e4ea;stop-opacity:1;" offset="0.726562"/><stop style="stop-color:#53e4eb;stop-opacity:1;" offset="0.734375"/><stop style="stop-color:#53e5eb;stop-opacity:1;" offset="0.742187"/><stop style="stop-color:#54e5ec;stop-opacity:1;" offset="0.75"/><stop style="stop-color:#55e6ed;stop-opacity:1;" offset="0.757812"/><stop style="stop-color:#56e7ed;stop-opacity:1;" offset="0.765625"/><stop style="stop-color:#57e7ee;stop-opacity:1;" offset="0.773438"/><stop style="stop-color:#58e8ee;stop-opacity:1;" offset="0.78125"/><stop style="stop-color:#59e8ef;stop-opacity:1;" offset="0.789062"/><stop style="stop-color:#5ae9ef;stop-opacity:1;" offset="0.796875"/><stop style="stop-color:#5aeaf0;stop-opacity:1;" offset="0.804688"/><stop style="stop-color:#5beaf1;stop-opacity:1;" offset="0.8125"/><stop style="stop-color:#5cebf1;stop-opacity:1;" offset="0.820312"/><stop style="stop-color:#5debf2;stop-opacity:1;" offset="0.828125"/><stop style="stop-color:#5eecf2;stop-opacity:1;" offset="0.835938"/><stop style="stop-color:#5fedf3;stop-opacity:1;" offset="0.84375"/><stop style="stop-color:#60edf4;stop-opacity:1;" offset="0.851562"/><stop style="stop-color:#61eef4;stop-opacity:1;" offset="0.859375"/><stop style="stop-color:#62eef5;stop-opacity:1;" offset="0.867188"/><stop style="stop-color:#62eff5;stop-opacity:1;" offset="0.875"/><stop style="stop-color:#63f0f6;stop-opacity:1;" offset="0.882812"/><stop style="stop-color:#64f0f7;stop-opacity:1;" offset="0.890625"/><stop style="stop-color:#65f1f7;stop-opacity:1;" offset="0.898438"/><stop style="stop-color:#66f1f8;stop-opacity:1;" offset="0.90625"/><stop style="stop-color:#67f2f8;stop-opacity:1;" offset="0.914062"/><stop style="stop-color:#68f3f9;stop-opacity:1;" offset="0.921875"/><stop style="stop-color:#69f3f9;stop-opacity:1;" offset="0.929688"/><stop style="stop-color:#69f4fa;stop-opacity:1;" offset="0.9375"/><stop style="stop-color:#6af4fb;stop-opacity:1;" offset="0.945312"/><stop style="stop-color:#6bf5fb;stop-opacity:1;" offset="0.953125"/><stop style="stop-color:#6cf6fc;stop-opacity:1;" offset="0.960938"/><stop style="stop-color:#6df6fc;stop-opacity:1;" offset="0.96875"/><stop style="stop-color:#6ef7fd;stop-opacity:1;" offset="0.976562"/><stop style="stop-color:#6ff7fe;stop-opacity:1;" offset="0.984375"/><stop style="stop-color:#70f8fe;stop-opacity:1;" offset="0.992188"/><stop style="stop-color:#71f9ff;stop-opacity:1;" offset="1"/></linearGradient></defs><g id="20299d178b"><rect x="0" width="375" y="0" height="374.999991" style="fill:#ffffff;fill-opacity:1;stroke:none;"/><rect x="0" width="375" y="0" height="374.999991" style="fill:url(#8b49843d53);stroke:none;"/><g style="fill:#fcfffc;fill-opacity:1;"><g transform="translate(80.146874, 184.149905)"><path style="stroke:none" d="M 1.609375 0 L 1.609375 -1.953125 C 2.722656 -1.992188 3.613281 -2.09375 4.28125 -2.25 C 4.957031 -2.414062 5.484375 -2.691406 5.859375 -3.078125 C 6.234375 -3.472656 6.484375 -4.03125 6.609375 -4.75 C 6.742188 -5.46875 6.8125 -6.398438 6.8125 -7.546875 L 6.8125 -30.1875 C 6.8125 -31.332031 6.757812 -32.253906 6.65625 -32.953125 C 6.5625 -33.648438 6.359375 -34.203125 6.046875 -34.609375 C 5.742188 -35.023438 5.320312 -35.304688 4.78125 -35.453125 C 4.238281 -35.597656 3.523438 -35.703125 2.640625 -35.765625 L 2.640625 -37.734375 L 18.375 -37.734375 C 23.3125 -37.734375 27.109375 -36.941406 29.765625 -35.359375 C 32.429688 -33.773438 33.765625 -31.507812 33.765625 -28.5625 C 33.765625 -24.675781 30.96875 -21.929688 25.375 -20.328125 L 25.375 -20.140625 C 27.175781 -20.140625 28.800781 -19.882812 30.25 -19.375 C 31.707031 -18.875 32.941406 -18.164062 33.953125 -17.25 C 34.960938 -16.332031 35.742188 -15.253906 36.296875 -14.015625 C 36.859375 -12.773438 37.140625 -11.421875 37.140625 -9.953125 C 37.140625 -8.285156 36.738281 -6.828125 35.9375 -5.578125 C 35.132812 -4.335938 33.984375 -3.296875 32.484375 -2.453125 C 29.578125 -0.816406 25.578125 0 20.484375 0 Z M 20.828125 -2.984375 C 26.085938 -2.984375 28.71875 -5.351562 28.71875 -10.09375 C 28.71875 -13 27.769531 -15.125 25.875 -16.46875 C 24.894531 -17.15625 23.628906 -17.644531 22.078125 -17.9375 C 20.523438 -18.226562 18.617188 -18.375 16.359375 -18.375 L 14.015625 -18.375 L 14.015625 -8.578125 C 14.015625 -6.546875 14.535156 -5.101562 15.578125 -4.25 C 16.628906 -3.40625 18.378906 -2.984375 20.828125 -2.984375 Z M 16.90625 -21.3125 C 18.375 -21.3125 19.644531 -21.445312 20.71875 -21.71875 C 21.800781 -22 22.71875 -22.40625 23.46875 -22.9375 C 25.039062 -24.007812 25.828125 -25.691406 25.828125 -27.984375 C 25.828125 -30.367188 25.238281 -32.085938 24.0625 -33.140625 C 22.882812 -34.203125 20.988281 -34.734375 18.375 -34.734375 L 14.890625 -34.734375 C 14.304688 -34.734375 14.015625 -34.457031 14.015625 -33.90625 L 14.015625 -21.3125 Z M 16.90625 -21.3125 "/></g></g><g style="fill:#fcfffc;fill-opacity:1;"><g transform="translate(118.06981, 184.149905)"><path style="stroke:none" d="M 14.0625 7.6875 C 13.707031 8.40625 13.257812 9.078125 12.71875 9.703125 C 12.175781 10.328125 11.566406 10.859375 10.890625 11.296875 C 10.222656 11.734375 9.53125 12.082031 8.8125 12.34375 C 8.09375 12.601562 7.375 12.734375 6.65625 12.734375 C 5.582031 12.734375 4.71875 12.472656 4.0625 11.953125 C 3.414062 11.429688 3.09375 10.726562 3.09375 9.84375 C 3.09375 9.03125 3.375 8.394531 3.9375 7.9375 C 4.507812 7.476562 5.4375 7.203125 6.71875 7.109375 C 9.625 6.878906 11.5 5.960938 12.34375 4.359375 L 13.671875 1.8125 L 5 -19.65625 C 4.601562 -20.59375 4.265625 -21.335938 3.984375 -21.890625 C 3.710938 -22.453125 3.410156 -22.890625 3.078125 -23.203125 C 2.753906 -23.515625 2.378906 -23.71875 1.953125 -23.8125 C 1.535156 -23.914062 1.015625 -23.984375 0.390625 -24.015625 L 0.390625 -25.96875 L 15.234375 -25.96875 L 15.234375 -24.015625 C 13.960938 -24.015625 13.070312 -23.890625 12.5625 -23.640625 C 12.0625 -23.398438 11.8125 -22.953125 11.8125 -22.296875 C 11.8125 -22.035156 11.847656 -21.734375 11.921875 -21.390625 C 12.003906 -21.046875 12.113281 -20.691406 12.25 -20.328125 L 17.25 -6.03125 L 17.4375 -6.03125 L 21.65625 -15.578125 C 22.082031 -16.585938 22.441406 -17.425781 22.734375 -18.09375 C 23.023438 -18.769531 23.242188 -19.34375 23.390625 -19.8125 C 23.546875 -20.289062 23.65625 -20.675781 23.71875 -20.96875 C 23.78125 -21.257812 23.8125 -21.554688 23.8125 -21.859375 C 23.8125 -22.703125 23.570312 -23.269531 23.09375 -23.5625 C 22.625 -23.863281 21.671875 -24.015625 20.234375 -24.015625 L 20.234375 -25.96875 L 32.046875 -25.96875 L 32.046875 -24.015625 C 31.390625 -24.015625 30.832031 -23.921875 30.375 -23.734375 C 29.914062 -23.554688 29.445312 -23.191406 28.96875 -22.640625 C 28.5 -22.085938 27.976562 -21.257812 27.40625 -20.15625 C 26.84375 -19.0625 26.132812 -17.617188 25.28125 -15.828125 Z M 14.0625 7.6875 "/></g></g><g style="fill:#fcfffc;fill-opacity:1;"><g transform="translate(149.721282, 184.149905)"><path style="stroke:none" d="M 1.21875 -23.28125 L 1.21875 -25.484375 C 3.1875 -26.035156 4.832031 -26.875 6.15625 -28 C 7.476562 -29.125 8.460938 -30.425781 9.109375 -31.90625 L 11.609375 -31.90625 L 11.609375 -25.96875 L 17.25 -25.96875 L 17.25 -23.28125 L 11.609375 -23.28125 L 11.609375 -8.234375 C 11.609375 -6.203125 11.828125 -4.757812 12.265625 -3.90625 C 12.710938 -3.0625 13.457031 -2.640625 14.5 -2.640625 C 15.78125 -2.640625 16.742188 -3.226562 17.390625 -4.40625 L 18.421875 -2.984375 C 17.503906 -0.671875 15.347656 0.484375 11.953125 0.484375 C 9.703125 0.484375 7.945312 -0.0351562 6.6875 -1.078125 C 5.425781 -2.117188 4.796875 -3.585938 4.796875 -5.484375 L 4.796875 -23.28125 Z M 1.21875 -23.28125 "/></g></g><g style="fill:#fcfffc;fill-opacity:1;"><g transform="translate(168.437784, 184.149905)"><path style="stroke:none" d="M 26.453125 -4.5625 C 23.484375 -1.195312 19.78125 0.484375 15.34375 0.484375 C 13.3125 0.484375 11.46875 0.164062 9.8125 -0.46875 C 8.164062 -1.101562 6.753906 -2 5.578125 -3.15625 C 4.410156 -4.320312 3.5 -5.703125 2.84375 -7.296875 C 2.1875 -8.898438 1.859375 -10.679688 1.859375 -12.640625 C 1.859375 -14.671875 2.203125 -16.523438 2.890625 -18.203125 C 3.578125 -19.890625 4.546875 -21.34375 5.796875 -22.5625 C 7.054688 -23.789062 8.546875 -24.742188 10.265625 -25.421875 C 11.984375 -26.109375 13.867188 -26.453125 15.921875 -26.453125 C 19.390625 -26.453125 22.085938 -25.519531 24.015625 -23.65625 C 25.941406 -21.800781 26.90625 -19.191406 26.90625 -15.828125 C 26.90625 -15.304688 26.820312 -14.988281 26.65625 -14.875 C 26.488281 -14.757812 26.03125 -14.703125 25.28125 -14.703125 L 9.5 -14.703125 C 9.375 -14.410156 9.3125 -13.867188 9.3125 -13.078125 C 9.3125 -9.878906 10.003906 -7.347656 11.390625 -5.484375 C 12.773438 -3.617188 14.660156 -2.6875 17.046875 -2.6875 C 18.421875 -2.6875 19.785156 -3 21.140625 -3.625 C 22.492188 -4.25 23.8125 -5.128906 25.09375 -6.265625 Z M 16.953125 -17.4375 C 18.253906 -17.4375 19.09375 -17.507812 19.46875 -17.65625 C 19.851562 -17.8125 20.046875 -18.164062 20.046875 -18.71875 C 20.046875 -20.15625 19.632812 -21.332031 18.8125 -22.25 C 18 -23.164062 16.972656 -23.625 15.734375 -23.625 C 14.328125 -23.625 13.078125 -23.039062 11.984375 -21.875 C 10.890625 -20.71875 10.175781 -19.238281 9.84375 -17.4375 Z M 16.953125 -17.4375 "/></g></g><g style="fill:#fcfffc;fill-opacity:1;"><g transform="translate(196.708511, 184.149905)"><path style="stroke:none" d="M 35.46875 0 L 1.71875 0 L 1.71875 -1.953125 C 2.789062 -1.992188 3.671875 -2.09375 4.359375 -2.25 C 5.046875 -2.414062 5.566406 -2.691406 5.921875 -3.078125 C 6.285156 -3.472656 6.53125 -4.03125 6.65625 -4.75 C 6.789062 -5.46875 6.859375 -6.398438 6.859375 -7.546875 L 6.859375 -30.1875 C 6.859375 -31.332031 6.800781 -32.253906 6.6875 -32.953125 C 6.570312 -33.648438 6.347656 -34.203125 6.015625 -34.609375 C 5.691406 -35.023438 5.226562 -35.304688 4.625 -35.453125 C 4.019531 -35.597656 3.226562 -35.703125 2.25 -35.765625 L 2.25 -37.734375 L 19.15625 -37.734375 L 19.15625 -35.765625 C 18.050781 -35.734375 17.160156 -35.632812 16.484375 -35.46875 C 15.816406 -35.3125 15.300781 -35.019531 14.9375 -34.59375 C 14.582031 -34.164062 14.347656 -33.578125 14.234375 -32.828125 C 14.117188 -32.078125 14.0625 -31.082031 14.0625 -29.84375 L 14.0625 -9.3125 C 14.0625 -7.9375 14.195312 -6.816406 14.46875 -5.953125 C 14.75 -5.085938 15.234375 -4.414062 15.921875 -3.9375 C 16.609375 -3.46875 17.523438 -3.140625 18.671875 -2.953125 C 19.816406 -2.773438 21.238281 -2.6875 22.9375 -2.6875 C 24.832031 -2.6875 26.414062 -2.800781 27.6875 -3.03125 C 28.957031 -3.257812 30.023438 -3.691406 30.890625 -4.328125 C 31.753906 -4.972656 32.445312 -5.832031 32.96875 -6.90625 C 33.5 -7.988281 33.941406 -9.394531 34.296875 -11.125 L 36.265625 -11.125 Z M 35.46875 0 "/></g></g><g style="fill:#fcfffc;fill-opacity:1;"><g transform="translate(233.700563, 184.149905)"><path style="stroke:none" d="M 16.859375 -13.96875 C 14.109375 -12.726562 12.039062 -11.578125 10.65625 -10.515625 C 9.269531 -9.453125 8.578125 -8.347656 8.578125 -7.203125 C 8.578125 -6.253906 8.835938 -5.5 9.359375 -4.9375 C 9.878906 -4.382812 10.53125 -4.109375 11.3125 -4.109375 C 12.101562 -4.109375 12.835938 -4.25 13.515625 -4.53125 C 14.203125 -4.8125 14.789062 -5.179688 15.28125 -5.640625 C 15.769531 -6.097656 16.15625 -6.644531 16.4375 -7.28125 C 16.71875 -7.914062 16.859375 -8.59375 16.859375 -9.3125 Z M 16.859375 -16.5625 L 16.859375 -18.625 C 16.859375 -20.519531 16.519531 -21.898438 15.84375 -22.765625 C 15.175781 -23.628906 14.140625 -24.0625 12.734375 -24.0625 C 11.785156 -24.0625 11.066406 -23.804688 10.578125 -23.296875 C 10.085938 -22.796875 9.632812 -21.957031 9.21875 -20.78125 C 8.914062 -19.957031 8.492188 -19.316406 7.953125 -18.859375 C 7.421875 -18.398438 6.679688 -18.171875 5.734375 -18.171875 C 4.816406 -18.171875 4.113281 -18.445312 3.625 -19 C 3.132812 -19.5625 2.890625 -20.347656 2.890625 -21.359375 C 2.890625 -22.929688 3.742188 -24.171875 5.453125 -25.078125 C 7.171875 -25.992188 9.765625 -26.453125 13.234375 -26.453125 C 16.890625 -26.453125 19.5 -25.789062 21.0625 -24.46875 C 22.632812 -23.144531 23.421875 -20.9375 23.421875 -17.84375 L 23.421875 -7.109375 C 23.421875 -4.328125 23.976562 -2.9375 25.09375 -2.9375 C 25.707031 -2.9375 26.273438 -3.148438 26.796875 -3.578125 L 27.53125 -2.15625 C 27.082031 -1.34375 26.375 -0.695312 25.40625 -0.21875 C 24.445312 0.25 23.359375 0.484375 22.140625 0.484375 C 20.640625 0.484375 19.5 0.03125 18.71875 -0.875 C 17.9375 -1.789062 17.546875 -3.082031 17.546875 -4.75 L 17.296875 -4.75 C 16.347656 -3.050781 15.125 -1.757812 13.625 -0.875 C 12.125 0 10.410156 0.4375 8.484375 0.4375 C 6.421875 0.4375 4.769531 -0.140625 3.53125 -1.296875 C 2.289062 -2.453125 1.671875 -3.960938 1.671875 -5.828125 C 1.671875 -7.265625 2.304688 -8.613281 3.578125 -9.875 C 4.847656 -11.132812 6.972656 -12.367188 9.953125 -13.578125 Z M 16.859375 -16.5625 "/></g></g><g style="fill:#fcfffc;fill-opacity:1;"><g transform="translate(261.824314, 184.149905)"><path style="stroke:none" d="M 11.03125 -10.734375 C 11.03125 -9.523438 11.195312 -8.40625 11.53125 -7.375 C 11.875 -6.34375 12.335938 -5.453125 12.921875 -4.703125 C 13.515625 -3.953125 14.21875 -3.363281 15.03125 -2.9375 C 15.851562 -2.507812 16.753906 -2.296875 17.734375 -2.296875 C 19.691406 -2.296875 21.175781 -3.191406 22.1875 -4.984375 C 23.207031 -6.785156 23.71875 -9.4375 23.71875 -12.9375 C 23.71875 -16.332031 23.21875 -18.921875 22.21875 -20.703125 C 21.226562 -22.484375 19.734375 -23.375 17.734375 -23.375 C 16.554688 -23.375 15.46875 -23.054688 14.46875 -22.421875 C 13.476562 -21.785156 12.707031 -20.894531 12.15625 -19.75 C 11.40625 -18.175781 11.03125 -16.195312 11.03125 -13.8125 Z M 10.921875 -22.59375 L 11.125 -22.59375 C 11.96875 -23.832031 13.0625 -24.785156 14.40625 -25.453125 C 15.75 -26.117188 17.269531 -26.453125 18.96875 -26.453125 C 20.695312 -26.453125 22.300781 -26.101562 23.78125 -25.40625 C 25.269531 -24.707031 26.5625 -23.753906 27.65625 -22.546875 C 28.75 -21.335938 29.601562 -19.914062 30.21875 -18.28125 C 30.84375 -16.644531 31.15625 -14.894531 31.15625 -13.03125 C 31.15625 -11.070312 30.820312 -9.265625 30.15625 -7.609375 C 29.488281 -5.960938 28.570312 -4.535156 27.40625 -3.328125 C 26.25 -2.117188 24.894531 -1.171875 23.34375 -0.484375 C 21.789062 0.191406 20.148438 0.53125 18.421875 0.53125 C 16.628906 0.53125 14.9375 0.179688 13.34375 -0.515625 C 11.757812 -1.210938 10.5 -2.132812 9.5625 -3.28125 L 5.828125 0 L 4.171875 0 L 4.171875 -29.15625 C 4.171875 -32.226562 3.957031 -34.332031 3.53125 -35.46875 C 3.425781 -35.695312 3.304688 -35.894531 3.171875 -36.0625 C 3.046875 -36.226562 2.859375 -36.367188 2.609375 -36.484375 C 2.367188 -36.597656 2.035156 -36.691406 1.609375 -36.765625 C 1.191406 -36.847656 0.640625 -36.941406 -0.046875 -37.046875 L -0.046875 -38.703125 L 10.921875 -40.671875 Z M 10.921875 -22.59375 "/></g></g><g style="fill:#fcfffc;fill-opacity:1;"><g transform="translate(88.00406, 209.999986)"><path style="stroke:none" d="M 4.609375 0.09375 C 3.828125 0.09375 3.078125 -0.03125 2.359375 -0.28125 C 1.648438 -0.53125 1.097656 -0.863281 0.703125 -1.28125 L 1.140625 -2.125 C 1.515625 -1.75 2.015625 -1.441406 2.640625 -1.203125 C 3.273438 -0.972656 3.929688 -0.859375 4.609375 -0.859375 C 5.546875 -0.859375 6.25 -1.03125 6.71875 -1.375 C 7.1875 -1.71875 7.421875 -2.164062 7.421875 -2.71875 C 7.421875 -3.132812 7.289062 -3.46875 7.03125 -3.71875 C 6.78125 -3.96875 6.46875 -4.160156 6.09375 -4.296875 C 5.726562 -4.429688 5.21875 -4.578125 4.5625 -4.734375 C 3.769531 -4.941406 3.140625 -5.132812 2.671875 -5.3125 C 2.203125 -5.5 1.796875 -5.78125 1.453125 -6.15625 C 1.117188 -6.539062 0.953125 -7.054688 0.953125 -7.703125 C 0.953125 -8.234375 1.09375 -8.71875 1.375 -9.15625 C 1.65625 -9.59375 2.085938 -9.941406 2.671875 -10.203125 C 3.253906 -10.460938 3.972656 -10.59375 4.828125 -10.59375 C 5.429688 -10.59375 6.019531 -10.507812 6.59375 -10.34375 C 7.164062 -10.175781 7.660156 -9.945312 8.078125 -9.65625 L 7.703125 -8.78125 C 7.265625 -9.0625 6.796875 -9.273438 6.296875 -9.421875 C 5.796875 -9.566406 5.304688 -9.640625 4.828125 -9.640625 C 3.910156 -9.640625 3.21875 -9.460938 2.75 -9.109375 C 2.289062 -8.753906 2.0625 -8.296875 2.0625 -7.734375 C 2.0625 -7.316406 2.1875 -6.976562 2.4375 -6.71875 C 2.6875 -6.46875 3.003906 -6.273438 3.390625 -6.140625 C 3.773438 -6.003906 4.296875 -5.859375 4.953125 -5.703125 C 5.722656 -5.515625 6.34375 -5.328125 6.8125 -5.140625 C 7.289062 -4.953125 7.691406 -4.671875 8.015625 -4.296875 C 8.347656 -3.921875 8.515625 -3.414062 8.515625 -2.78125 C 8.515625 -2.25 8.375 -1.765625 8.09375 -1.328125 C 7.8125 -0.890625 7.375 -0.539062 6.78125 -0.28125 C 6.1875 -0.03125 5.460938 0.09375 4.609375 0.09375 Z M 4.609375 0.09375 "/></g></g><g style="fill:#fcfffc;fill-opacity:1;"><g transform="translate(97.934041, 209.999986)"><path style="stroke:none" d="M 6.296875 0.09375 C 5.253906 0.09375 4.3125 -0.140625 3.46875 -0.609375 C 2.625 -1.078125 1.960938 -1.710938 1.484375 -2.515625 C 1.015625 -3.328125 0.78125 -4.238281 0.78125 -5.25 C 0.78125 -6.257812 1.015625 -7.164062 1.484375 -7.96875 C 1.960938 -8.78125 2.625 -9.421875 3.46875 -9.890625 C 4.3125 -10.359375 5.253906 -10.59375 6.296875 -10.59375 C 7.335938 -10.59375 8.273438 -10.359375 9.109375 -9.890625 C 9.941406 -9.429688 10.597656 -8.796875 11.078125 -7.984375 C 11.566406 -7.171875 11.8125 -6.257812 11.8125 -5.25 C 11.8125 -4.238281 11.566406 -3.328125 11.078125 -2.515625 C 10.597656 -1.703125 9.941406 -1.0625 9.109375 -0.59375 C 8.273438 -0.132812 7.335938 0.09375 6.296875 0.09375 Z M 6.296875 -0.90625 C 7.128906 -0.90625 7.878906 -1.09375 8.546875 -1.46875 C 9.222656 -1.84375 9.75 -2.359375 10.125 -3.015625 C 10.5 -3.679688 10.6875 -4.425781 10.6875 -5.25 C 10.6875 -6.070312 10.5 -6.8125 10.125 -7.46875 C 9.75 -8.132812 9.222656 -8.65625 8.546875 -9.03125 C 7.878906 -9.40625 7.128906 -9.59375 6.296875 -9.59375 C 5.472656 -9.59375 4.722656 -9.40625 4.046875 -9.03125 C 3.367188 -8.65625 2.835938 -8.132812 2.453125 -7.46875 C 2.066406 -6.8125 1.875 -6.070312 1.875 -5.25 C 1.875 -4.425781 2.066406 -3.679688 2.453125 -3.015625 C 2.835938 -2.359375 3.367188 -1.84375 4.046875 -1.46875 C 4.722656 -1.09375 5.472656 -0.90625 6.296875 -0.90625 Z M 6.296875 -0.90625 "/></g></g><g style="fill:#fcfffc;fill-opacity:1;"><g transform="translate(111.224018, 209.999986)"><path style="stroke:none" d="M 1.703125 -10.5 L 2.8125 -10.5 L 2.8125 -0.953125 L 8.703125 -0.953125 L 8.703125 0 L 1.703125 0 Z M 1.703125 -10.5 "/></g></g><g style="fill:#fcfffc;fill-opacity:1;"><g transform="translate(120.569, 209.999986)"><path style="stroke:none" d="M 5.9375 0.09375 C 4.582031 0.09375 3.523438 -0.296875 2.765625 -1.078125 C 2.003906 -1.859375 1.625 -2.992188 1.625 -4.484375 L 1.625 -10.5 L 2.734375 -10.5 L 2.734375 -4.53125 C 2.734375 -3.3125 3.003906 -2.398438 3.546875 -1.796875 C 4.097656 -1.203125 4.894531 -0.90625 5.9375 -0.90625 C 6.988281 -0.90625 7.789062 -1.203125 8.34375 -1.796875 C 8.894531 -2.398438 9.171875 -3.3125 9.171875 -4.53125 L 9.171875 -10.5 L 10.25 -10.5 L 10.25 -4.484375 C 10.25 -2.992188 9.867188 -1.859375 9.109375 -1.078125 C 8.359375 -0.296875 7.300781 0.09375 5.9375 0.09375 Z M 5.9375 0.09375 "/></g></g><g style="fill:#fcfffc;fill-opacity:1;"><g transform="translate(133.153975, 209.999986)"><path style="stroke:none" d="M 6.265625 0.09375 C 5.222656 0.09375 4.285156 -0.132812 3.453125 -0.59375 C 2.617188 -1.0625 1.960938 -1.703125 1.484375 -2.515625 C 1.015625 -3.328125 0.78125 -4.238281 0.78125 -5.25 C 0.78125 -6.257812 1.015625 -7.171875 1.484375 -7.984375 C 1.960938 -8.796875 2.617188 -9.429688 3.453125 -9.890625 C 4.296875 -10.359375 5.238281 -10.59375 6.28125 -10.59375 C 7.0625 -10.59375 7.78125 -10.460938 8.4375 -10.203125 C 9.101562 -9.941406 9.664062 -9.5625 10.125 -9.0625 L 9.421875 -8.359375 C 8.597656 -9.179688 7.5625 -9.59375 6.3125 -9.59375 C 5.476562 -9.59375 4.722656 -9.398438 4.046875 -9.015625 C 3.367188 -8.640625 2.835938 -8.125 2.453125 -7.46875 C 2.066406 -6.8125 1.875 -6.070312 1.875 -5.25 C 1.875 -4.425781 2.066406 -3.6875 2.453125 -3.03125 C 2.835938 -2.375 3.367188 -1.851562 4.046875 -1.46875 C 4.722656 -1.09375 5.476562 -0.90625 6.3125 -0.90625 C 7.570312 -0.90625 8.609375 -1.320312 9.421875 -2.15625 L 10.125 -1.453125 C 9.664062 -0.953125 9.101562 -0.566406 8.4375 -0.296875 C 7.769531 -0.0351562 7.046875 0.09375 6.265625 0.09375 Z M 6.265625 0.09375 "/></g></g><g style="fill:#fcfffc;fill-opacity:1;"><g transform="translate(144.643957, 209.999986)"><path style="stroke:none" d="M 1.703125 -10.5 L 2.8125 -10.5 L 2.8125 0 L 1.703125 0 Z M 1.703125 -10.5 "/></g></g><g style="fill:#fcfffc;fill-opacity:1;"><g transform="translate(149.878942, 209.999986)"><path style="stroke:none" d="M 6.296875 0.09375 C 5.253906 0.09375 4.3125 -0.140625 3.46875 -0.609375 C 2.625 -1.078125 1.960938 -1.710938 1.484375 -2.515625 C 1.015625 -3.328125 0.78125 -4.238281 0.78125 -5.25 C 0.78125 -6.257812 1.015625 -7.164062 1.484375 -7.96875 C 1.960938 -8.78125 2.625 -9.421875 3.46875 -9.890625 C 4.3125 -10.359375 5.253906 -10.59375 6.296875 -10.59375 C 7.335938 -10.59375 8.273438 -10.359375 9.109375 -9.890625 C 9.941406 -9.429688 10.597656 -8.796875 11.078125 -7.984375 C 11.566406 -7.171875 11.8125 -6.257812 11.8125 -5.25 C 11.8125 -4.238281 11.566406 -3.328125 11.078125 -2.515625 C 10.597656 -1.703125 9.941406 -1.0625 9.109375 -0.59375 C 8.273438 -0.132812 7.335938 0.09375 6.296875 0.09375 Z M 6.296875 -0.90625 C 7.128906 -0.90625 7.878906 -1.09375 8.546875 -1.46875 C 9.222656 -1.84375 9.75 -2.359375 10.125 -3.015625 C 10.5 -3.679688 10.6875 -4.425781 10.6875 -5.25 C 10.6875 -6.070312 10.5 -6.8125 10.125 -7.46875 C 9.75 -8.132812 9.222656 -8.65625 8.546875 -9.03125 C 7.878906 -9.40625 7.128906 -9.59375 6.296875 -9.59375 C 5.472656 -9.59375 4.722656 -9.40625 4.046875 -9.03125 C 3.367188 -8.65625 2.835938 -8.132812 2.453125 -7.46875 C 2.066406 -6.8125 1.875 -6.070312 1.875 -5.25 C 1.875 -4.425781 2.066406 -3.679688 2.453125 -3.015625 C 2.835938 -2.359375 3.367188 -1.84375 4.046875 -1.46875 C 4.722656 -1.09375 5.472656 -0.90625 6.296875 -0.90625 Z M 6.296875 -0.90625 "/></g></g><g style="fill:#fcfffc;fill-opacity:1;"><g transform="translate(163.168919, 209.999986)"><path style="stroke:none" d="M 10.484375 -10.5 L 10.484375 0 L 9.5625 0 L 2.8125 -8.515625 L 2.8125 0 L 1.703125 0 L 1.703125 -10.5 L 2.625 -10.5 L 9.390625 -1.984375 L 9.390625 -10.5 Z M 10.484375 -10.5 "/></g></g><g style="fill:#fcfffc;fill-opacity:1;"><g transform="translate(176.068893, 209.999986)"><path style="stroke:none" d="M 9.140625 -0.953125 L 9.140625 0 L 1.703125 0 L 1.703125 -10.5 L 8.90625 -10.5 L 8.90625 -9.546875 L 2.8125 -9.546875 L 2.8125 -5.8125 L 8.25 -5.8125 L 8.25 -4.859375 L 2.8125 -4.859375 L 2.8125 -0.953125 Z M 9.140625 -0.953125 "/></g></g><g style="fill:#fcfffc;fill-opacity:1;"><g transform="translate(186.808875, 209.999986)"><path style="stroke:none" d="M 4.609375 0.09375 C 3.828125 0.09375 3.078125 -0.03125 2.359375 -0.28125 C 1.648438 -0.53125 1.097656 -0.863281 0.703125 -1.28125 L 1.140625 -2.125 C 1.515625 -1.75 2.015625 -1.441406 2.640625 -1.203125 C 3.273438 -0.972656 3.929688 -0.859375 4.609375 -0.859375 C 5.546875 -0.859375 6.25 -1.03125 6.71875 -1.375 C 7.1875 -1.71875 7.421875 -2.164062 7.421875 -2.71875 C 7.421875 -3.132812 7.289062 -3.46875 7.03125 -3.71875 C 6.78125 -3.96875 6.46875 -4.160156 6.09375 -4.296875 C 5.726562 -4.429688 5.21875 -4.578125 4.5625 -4.734375 C 3.769531 -4.941406 3.140625 -5.132812 2.671875 -5.3125 C 2.203125 -5.5 1.796875 -5.78125 1.453125 -6.15625 C 1.117188 -6.539062 0.953125 -7.054688 0.953125 -7.703125 C 0.953125 -8.234375 1.09375 -8.71875 1.375 -9.15625 C 1.65625 -9.59375 2.085938 -9.941406 2.671875 -10.203125 C 3.253906 -10.460938 3.972656 -10.59375 4.828125 -10.59375 C 5.429688 -10.59375 6.019531 -10.507812 6.59375 -10.34375 C 7.164062 -10.175781 7.660156 -9.945312 8.078125 -9.65625 L 7.703125 -8.78125 C 7.265625 -9.0625 6.796875 -9.273438 6.296875 -9.421875 C 5.796875 -9.566406 5.304688 -9.640625 4.828125 -9.640625 C 3.910156 -9.640625 3.21875 -9.460938 2.75 -9.109375 C 2.289062 -8.753906 2.0625 -8.296875 2.0625 -7.734375 C 2.0625 -7.316406 2.1875 -6.976562 2.4375 -6.71875 C 2.6875 -6.46875 3.003906 -6.273438 3.390625 -6.140625 C 3.773438 -6.003906 4.296875 -5.859375 4.953125 -5.703125 C 5.722656 -5.515625 6.34375 -5.328125 6.8125 -5.140625 C 7.289062 -4.953125 7.691406 -4.671875 8.015625 -4.296875 C 8.347656 -3.921875 8.515625 -3.414062 8.515625 -2.78125 C 8.515625 -2.25 8.375 -1.765625 8.09375 -1.328125 C 7.8125 -0.890625 7.375 -0.539062 6.78125 -0.28125 C 6.1875 -0.03125 5.460938 0.09375 4.609375 0.09375 Z M 4.609375 0.09375 "/></g></g><g style="fill:#fcfffc;fill-opacity:1;"><g transform="translate(201.373838, 209.999986)"><path style="stroke:none" d="M 1.703125 -10.5 L 5.984375 -10.5 C 7.097656 -10.5 8.078125 -10.273438 8.921875 -9.828125 C 9.773438 -9.390625 10.4375 -8.769531 10.90625 -7.96875 C 11.375 -7.175781 11.609375 -6.269531 11.609375 -5.25 C 11.609375 -4.226562 11.375 -3.316406 10.90625 -2.515625 C 10.4375 -1.722656 9.773438 -1.101562 8.921875 -0.65625 C 8.078125 -0.21875 7.097656 0 5.984375 0 L 1.703125 0 Z M 5.921875 -0.953125 C 6.847656 -0.953125 7.65625 -1.132812 8.34375 -1.5 C 9.03125 -1.875 9.5625 -2.378906 9.9375 -3.015625 C 10.320312 -3.660156 10.515625 -4.40625 10.515625 -5.25 C 10.515625 -6.09375 10.320312 -6.832031 9.9375 -7.46875 C 9.5625 -8.113281 9.03125 -8.617188 8.34375 -8.984375 C 7.65625 -9.359375 6.847656 -9.546875 5.921875 -9.546875 L 2.8125 -9.546875 L 2.8125 -0.953125 Z M 5.921875 -0.953125 "/></g></g><g style="fill:#fcfffc;fill-opacity:1;"><g transform="translate(214.468819, 209.999986)"><path style="stroke:none" d="M 1.703125 -10.5 L 2.8125 -10.5 L 2.8125 0 L 1.703125 0 Z M 1.703125 -10.5 "/></g></g><g style="fill:#fcfffc;fill-opacity:1;"><g transform="translate(219.703804, 209.999986)"><path style="stroke:none" d="M 9.109375 -5.25 L 10.171875 -5.25 L 10.171875 -1.25 C 9.679688 -0.8125 9.097656 -0.476562 8.421875 -0.25 C 7.753906 -0.0195312 7.050781 0.09375 6.3125 0.09375 C 5.257812 0.09375 4.3125 -0.132812 3.46875 -0.59375 C 2.632812 -1.0625 1.976562 -1.703125 1.5 -2.515625 C 1.019531 -3.328125 0.78125 -4.238281 0.78125 -5.25 C 0.78125 -6.257812 1.019531 -7.171875 1.5 -7.984375 C 1.976562 -8.796875 2.632812 -9.429688 3.46875 -9.890625 C 4.3125 -10.359375 5.265625 -10.59375 6.328125 -10.59375 C 7.128906 -10.59375 7.863281 -10.460938 8.53125 -10.203125 C 9.207031 -9.953125 9.773438 -9.578125 10.234375 -9.078125 L 9.546875 -8.375 C 8.710938 -9.1875 7.65625 -9.59375 6.375 -9.59375 C 5.519531 -9.59375 4.75 -9.40625 4.0625 -9.03125 C 3.382812 -8.65625 2.847656 -8.132812 2.453125 -7.46875 C 2.066406 -6.8125 1.875 -6.070312 1.875 -5.25 C 1.875 -4.425781 2.066406 -3.6875 2.453125 -3.03125 C 2.847656 -2.375 3.382812 -1.851562 4.0625 -1.46875 C 4.738281 -1.09375 5.503906 -0.90625 6.359375 -0.90625 C 7.441406 -0.90625 8.359375 -1.171875 9.109375 -1.703125 Z M 9.109375 -5.25 "/></g></g><g style="fill:#fcfffc;fill-opacity:1;"><g transform="translate(232.003787, 209.999986)"><path style="stroke:none" d="M 1.703125 -10.5 L 2.8125 -10.5 L 2.8125 0 L 1.703125 0 Z M 1.703125 -10.5 "/></g></g><g style="fill:#fcfffc;fill-opacity:1;"><g transform="translate(237.238772, 209.999986)"><path style="stroke:none" d="M 3.75 -9.546875 L 0.0625 -9.546875 L 0.0625 -10.5 L 8.546875 -10.5 L 8.546875 -9.546875 L 4.859375 -9.546875 L 4.859375 0 L 3.75 0 Z M 3.75 -9.546875 "/></g></g><g style="fill:#fcfffc;fill-opacity:1;"><g transform="translate(246.028761, 209.999986)"><path style="stroke:none" d="M 8.296875 -2.8125 L 2.4375 -2.8125 L 1.1875 0 L 0.03125 0 L 4.828125 -10.5 L 5.921875 -10.5 L 10.71875 0 L 9.5625 0 Z M 7.890625 -3.703125 L 5.375 -9.34375 L 2.84375 -3.703125 Z M 7.890625 -3.703125 "/></g></g><g style="fill:#fcfffc;fill-opacity:1;"><g transform="translate(257.488737, 209.999986)"><path style="stroke:none" d="M 1.703125 -10.5 L 2.8125 -10.5 L 2.8125 -0.953125 L 8.703125 -0.953125 L 8.703125 0 L 1.703125 0 Z M 1.703125 -10.5 "/></g></g><g style="fill:#fcfffc;fill-opacity:1;"><g transform="translate(267.028714, 209.999986)"><path style="stroke:none" d="M 9.140625 -0.953125 L 9.140625 0 L 1.703125 0 L 1.703125 -10.5 L 8.90625 -10.5 L 8.90625 -9.546875 L 2.8125 -9.546875 L 2.8125 -5.8125 L 8.25 -5.8125 L 8.25 -4.859375 L 2.8125 -4.859375 L 2.8125 -0.953125 Z M 9.140625 -0.953125 "/></g></g><g style="fill:#fcfffc;fill-opacity:1;"><g transform="translate(277.768696, 209.999986)"><path style="stroke:none" d="M 4.609375 0.09375 C 3.828125 0.09375 3.078125 -0.03125 2.359375 -0.28125 C 1.648438 -0.53125 1.097656 -0.863281 0.703125 -1.28125 L 1.140625 -2.125 C 1.515625 -1.75 2.015625 -1.441406 2.640625 -1.203125 C 3.273438 -0.972656 3.929688 -0.859375 4.609375 -0.859375 C 5.546875 -0.859375 6.25 -1.03125 6.71875 -1.375 C 7.1875 -1.71875 7.421875 -2.164062 7.421875 -2.71875 C 7.421875 -3.132812 7.289062 -3.46875 7.03125 -3.71875 C 6.78125 -3.96875 6.46875 -4.160156 6.09375 -4.296875 C 5.726562 -4.429688 5.21875 -4.578125 4.5625 -4.734375 C 3.769531 -4.941406 3.140625 -5.132812 2.671875 -5.3125 C 2.203125 -5.5 1.796875 -5.78125 1.453125 -6.15625 C 1.117188 -6.539062 0.953125 -7.054688 0.953125 -7.703125 C 0.953125 -8.234375 1.09375 -8.71875 1.375 -9.15625 C 1.65625 -9.59375 2.085938 -9.941406 2.671875 -10.203125 C 3.253906 -10.460938 3.972656 -10.59375 4.828125 -10.59375 C 5.429688 -10.59375 6.019531 -10.507812 6.59375 -10.34375 C 7.164062 -10.175781 7.660156 -9.945312 8.078125 -9.65625 L 7.703125 -8.78125 C 7.265625 -9.0625 6.796875 -9.273438 6.296875 -9.421875 C 5.796875 -9.566406 5.304688 -9.640625 4.828125 -9.640625 C 3.910156 -9.640625 3.21875 -9.460938 2.75 -9.109375 C 2.289062 -8.753906 2.0625 -8.296875 2.0625 -7.734375 C 2.0625 -7.316406 2.1875 -6.976562 2.4375 -6.71875 C 2.6875 -6.46875 3.003906 -6.273438 3.390625 -6.140625 C 3.773438 -6.003906 4.296875 -5.859375 4.953125 -5.703125 C 5.722656 -5.515625 6.34375 -5.328125 6.8125 -5.140625 C 7.289062 -4.953125 7.691406 -4.671875 8.015625 -4.296875 C 8.347656 -3.921875 8.515625 -3.414062 8.515625 -2.78125 C 8.515625 -2.25 8.375 -1.765625 8.09375 -1.328125 C 7.8125 -0.890625 7.375 -0.539062 6.78125 -0.28125 C 6.1875 -0.03125 5.460938 0.09375 4.609375 0.09375 Z M 4.609375 0.09375 "/></g></g></g></svg>